General
Complete name                            : ../.././Samples/demux-asf-assert-failed.wmv
Format                                   : Windows Media
File size                                : 11.2 MiB
Duration                                 : 5 min 46 s
Overall bit rate                         : 270 kb/s
Maximum Overall bit rate                 : 269 kb/s

Video
ID                                       : 2
Format                                   : MPEG-4 Visual
Codec ID                                 : MP43
Codec ID/Info                            : Microsoft MPEG-4 v3 (pre-standard)
Codec ID/Hint                            : Microsoft
Description of the codec                 : Windows Media MPEG-4 Video V3 -     
Duration                                 : 5 min 46 s
Bit rate                                 : 186 kb/s
Width                                    : 320 pixels
Height                                   : 240 pixels
Display aspect ratio                     : 4:3
Frame rate                               : 15.000 FPS
Bit depth                                : 8 bits
Compression mode                         : Lossy
Bits/(Pixel*Frame)                       : 0.162
Stream size                              : 7.70 MiB (69%)

Audio
ID                                       : 1
Format                                   : WMA
Format version                           : Version 2
Codec ID                                 : 161
Codec ID/Info                            : Windows Media Audio
Description of the codec                 : Windows Media Audio V7 -  64 kbps, 44 kHz, stereo
Duration                                 : 5 min 46 s
Bit rate                                 : 64.0 kb/s
Channel(s)                               : 2 channels
Sampling rate                            : 44.1 kHz
Bit depth                                : 16 bits
Stream size                              : 2.65 MiB (24%)


